<svg width="25" height="25" viewBox="0 0 25 25" fill="none" xmlns="http://www.w3.org/2000/svg">
<path fill-rule="evenodd" clip-rule="evenodd" d="M12.5 22.0713L13.2512 21.2249C14.1035 20.2495 14.8706 19.3213 15.5524 18.4404L16.1155 17.6975C18.467 14.53 19.6428 12.0169 19.6428 10.1582C19.6428 6.19155 16.4452 2.97607 12.5 2.97607C8.55474 2.97607 5.35712 6.19155 5.35712 10.1582C5.35712 12.0169 6.53291 14.5304 8.8845 17.6987L9.44759 18.4416C10.4209 19.6883 11.439 20.8983 12.5 22.0713Z" stroke="#2F2F2F" stroke-linecap="round" stroke-linejoin="round"/>
<path d="M12.5 13.095C14.1437 13.095 15.4762 11.7625 15.4762 10.1188C15.4762 8.47506 14.1437 7.14258 12.5 7.14258C10.8563 7.14258 9.5238 8.47506 9.5238 10.1188C9.5238 11.7625 10.8563 13.095 12.5 13.095Z" stroke="#2F2F2F" stroke-linecap="round" stroke-linejoin="round"/>
</svg>
